<?xml version="1.0" encoding="utf-8"?>
<!-- Generator: Adobe Illustrator 18.0.0, SVG Export Plug-In . SVG Version: 6.00 Build 0)  -->
<!DOCTYPE svg PUBLIC "-//W3C//DTD SVG 1.1 Tiny//EN" "http://www.w3.org/Graphics/SVG/1.1/DTD/svg11-tiny.dtd">
<svg version="1.1" baseProfile="tiny" id="Layer_1" xmlns="http://www.w3.org/2000/svg" xmlns:xlink="http://www.w3.org/1999/xlink"
	 x="0px" y="0px" viewBox="0 1200.7 2000 600.1" xml:space="preserve">
<g>
	<path fill="#CC3300" d="M153.7,1443.1c0,14-3.7,25.9-11.1,37c-7.4,10.3-17.7,18.5-31,23.7c22.2,37.7,39.2,71.7,51,102
		c11.8,30.3,17.7,58.4,17.7,83.5c0,32.5-8.9,59.1-25.9,79.8s-39.2,31.8-65,31.8s-47.3-10.3-63.6-30.3C8.1,1748.3,0,1723.2,0,1691.4
		c0-27.3,5.2-56.2,16.3-85.7c5.2-14.8,12.6-31,21.4-48s19.2-35.5,31.8-54.7c-13.3-5.2-24.4-12.6-31.8-23.7
		c-7.4-11.1-11.8-22.9-11.8-36.2c0-17,5.9-31.8,18.5-44.3c12.6-12.6,27.3-19.2,45.1-19.2c17,0,31.8,5.9,44.3,18.5
		C147.1,1410.6,153.7,1425.4,153.7,1443.1z"/>
	<path fill="#CC3300" d="M368.8,1300.4l93.9,136h0.7v-136h180.3v410.2h-136l-86.5-127.1h-0.7v123.4H240.2v-406.5H368.8z
		 M390.2,1200.7c8.9,0,19.2,1.5,31.8,5.2l35.5,9.6c5.2,1.5,10.3,3,14,3.7c4.4,0.7,7.4,1.5,10.3,1.5c5.2,0,8.9-1.5,11.1-4.4
		c2.2-3,4.4-8.1,5.2-14.8h54c-1.5,24.4-6.7,42.9-17,55.4c-10.3,12.6-24.4,19.2-42.1,19.2c-5.9,0-13.3-0.7-21.4-2.2
		c-8.1-1.5-17-4.4-27.3-7.4c-10.3-3-18.5-5.9-25.1-7.4c-6.7-1.5-11.1-2.2-14-2.2c-4.4,0-8.9,1.5-11.8,4.4s-5.2,8.1-5.9,14.8h-55.4
		c1.5-23.7,7.4-42.1,17.7-55.4C359.9,1207.3,373.2,1200.7,390.2,1200.7z"/>
	<path fill="#CC3300" d="M1082.8,1300.4l141.2,407.2h-180.3L1020,1639H887.7l-23.7,68.7H684.4l141.2-407.2H1082.8z M920.9,1542.1
		h66.5l-32.5-99.8h-1.5L920.9,1542.1z"/>
	<path fill="#CC3300" d="M1438.3,1300.4l73.9,85l73.9-85h174.4v407.2h-180.3v-204l-68,78.3l-68.7-78.3v204h-180.3v-407.2H1438.3z"/>
	<path fill="#CC3300" d="M2000,1401.7c0,25.9-5.2,54-15.5,83.5c-10.3,28.8-28.1,64.3-54,105c13.3,5.2,23.7,12.6,31.8,23.7
		c7.4,10.3,11.8,22.9,11.8,37c0,17.7-6.7,32.5-19.2,45.1c-12.6,12.6-27.3,18.5-44.3,18.5c-17,0-31.8-5.9-45.1-18.5
		c-12.6-12.6-19.2-27.3-19.2-45.1c0-14,3.7-25.9,11.1-37c7.4-10.3,17.7-18.5,31-23.7c-23.7-39.9-41.4-74.6-52.5-105
		c-11.1-30.3-17-57.6-17-81.3c0-31.8,8.9-58.4,25.9-79.1c17-20.7,38.4-31.8,65-31.8c25.9,0,46.6,10.3,63.6,30.3
		C1991.1,1344.8,2000,1370.7,2000,1401.7z"/>
</g>
</svg>
